<svg id = "newLogo" xmlns="http://www.w3.org/2000/svg" version="1.1" xmlns:xlink="http://www.w3.org/1999/xlink" xmlns:svgjs="http://svgjs.dev/svgjs" width="2000" height="1247" viewBox="0 0 2000 1247"><g transform="matrix(1,0,0,1,-1.2121212121212466,0.5048582995952984)"><svg viewBox="0 0 396 247" data-background-color="#ffffff" preserveAspectRatio="xMidYMid meet" height="1247" width="2000" xmlns="http://www.w3.org/2000/svg" xmlns:xlink="http://www.w3.org/1999/xlink"><g id="tight-bounds" transform="matrix(1,0,0,1,0.2400000000000091,-0.09999999999999432)"><svg viewBox="0 0 395.52 247.2" height="247.2" width="395.52"><g><svg></svg></g><g><svg viewBox="0 0 395.52 247.2" height="247.2" width="395.52"><g transform="matrix(1,0,0,1,75.54432,88.60654449328808)"><svg viewBox="0 0 244.43135999999998 69.9869110134238" height="69.9869110134238" width="244.43135999999998"><g><svg viewBox="0 0 244.43135999999998 69.9869110134238" height="69.9869110134238" width="244.43135999999998"><g><svg viewBox="0 0 244.43135999999998 69.9869110134238" height="69.9869110134238" width="244.43135999999998"><g><svg viewBox="0 0 244.43135999999998 69.9869110134238" height="69.9869110134238" width="244.43135999999998"><g id="textblocktransform"><svg viewBox="0 0 244.43135999999998 69.9869110134238" height="69.9869110134238" width="244.43135999999998" id="textblock"><g><svg viewBox="0 0 244.43135999999998 69.9869110134238" height="69.9869110134238" width="244.43135999999998"><g transform="matrix(1,0,0,1,0,0)"><svg width="244.43135999999998" viewBox="-3.91 -37.99 165.49 47.39" height="69.9869110134238" data-palette-color="#6b7280"><path d="M-0.29 9.4L-0.29 9.4Q-2.59 9.4-3.91 8.74L-3.91 8.74-3.91 5.2Q-2.17 5.69-0.29 5.69L-0.29 5.69Q2.12 5.69 3.38 4.22 4.64 2.76 4.64 0L4.64 0 4.64-35.69 8.79-35.69 8.79-0.34Q8.79 4.3 6.45 6.85 4.1 9.4-0.29 9.4ZM28.95 0.49L28.95 0.49Q23.02 0.49 19.59-3.13 16.16-6.74 16.16-13.16L16.16-13.16Q16.16-19.63 19.35-23.44 22.53-27.25 27.9-27.25L27.9-27.25Q32.93-27.25 35.86-23.94 38.79-20.63 38.79-15.21L38.79-15.21 38.79-12.65 20.36-12.65Q20.48-7.93 22.74-5.49 25-3.05 29.1-3.05L29.1-3.05Q33.42-3.05 37.64-4.86L37.64-4.86 37.64-1.25Q35.5-0.32 33.58 0.09 31.66 0.49 28.95 0.49ZM27.85-23.85L27.85-23.85Q24.63-23.85 22.71-21.75 20.8-19.65 20.46-15.94L20.46-15.94 34.45-15.94Q34.45-19.78 32.74-21.81 31.03-23.85 27.85-23.85ZM58.15-27.2L58.15-27.2Q63.42-27.2 66.34-23.6 69.26-20 69.26-13.4L69.26-13.4Q69.26-6.81 66.32-3.16 63.37 0.49 58.15 0.49L58.15 0.49Q55.54 0.49 53.38-0.48 51.22-1.44 49.75-3.44L49.75-3.44 49.46-3.44 48.6 0 45.7 0 45.7-37.99 49.75-37.99 49.75-28.76Q49.75-25.66 49.56-23.19L49.56-23.19 49.75-23.19Q52.58-27.2 58.15-27.2ZM57.56-23.8L57.56-23.8Q53.41-23.8 51.58-21.42 49.75-19.04 49.75-13.4L49.75-13.4Q49.75-7.76 51.63-5.33 53.51-2.91 57.66-2.91L57.66-2.91Q61.4-2.91 63.23-5.63 65.06-8.35 65.06-13.45L65.06-13.45Q65.06-18.68 63.23-21.24 61.4-23.8 57.56-23.8ZM105.44-18.19L105.44-18.19Q105.44-9.35 100.64-4.68 95.84 0 86.83 0L86.83 0 76.95 0 76.95-35.69 87.88-35.69Q96.21-35.69 100.82-31.08 105.44-26.46 105.44-18.19ZM101.04-18.04L101.04-18.04Q101.04-25.02 97.54-28.56 94.04-32.1 87.13-32.1L87.13-32.1 81.1-32.1 81.1-3.59 86.15-3.59Q93.57-3.59 97.31-7.24 101.04-10.89 101.04-18.04ZM124.09 0.49L124.09 0.49Q118.15 0.49 114.72-3.13 111.29-6.74 111.29-13.16L111.29-13.16Q111.29-19.63 114.48-23.44 117.67-27.25 123.04-27.25L123.04-27.25Q128.07-27.25 131-23.94 133.93-20.63 133.93-15.21L133.93-15.21 133.93-12.65 115.49-12.65Q115.62-7.93 117.87-5.49 120.13-3.05 124.23-3.05L124.23-3.05Q128.55-3.05 132.78-4.86L132.78-4.86 132.78-1.25Q130.63-0.32 128.71 0.09 126.8 0.49 124.09 0.49ZM122.99-23.85L122.99-23.85Q119.77-23.85 117.85-21.75 115.93-19.65 115.59-15.94L115.59-15.94 129.58-15.94Q129.58-19.78 127.87-21.81 126.16-23.85 122.99-23.85ZM151.43 0L146.69 0 136.54-26.76 140.88-26.76 146.64-10.89Q148.6-5.32 148.94-3.66L148.94-3.66 149.13-3.66Q149.4-4.96 150.83-9.02 152.26-13.09 157.24-26.76L157.24-26.76 161.58-26.76 151.43 0Z" opacity="1" transform="matrix(1,0,0,1,0,0)" fill="#6b7280" class="wordmark-text-0" data-fill-palette-color="primary" id="text-0"></path></svg></g></svg></g></svg></g></svg></g></svg></g></svg></g></svg></g><g><path d="M245.816 0c68.262 0 123.6 55.338 123.6 123.6 0 68.262-55.338 123.6-123.6 123.6-53.045 0-98.286-33.416-115.82-80.345l3.376 0c17.379 45.15 61.17 77.19 112.444 77.189 66.52 0 120.444-53.925 120.444-120.444 0-66.52-53.925-120.444-120.444-120.444-51.274 0-95.065 32.039-112.444 77.189l-3.376 0c17.534-46.93 62.775-80.345 115.82-80.345z" fill="#6b7280" stroke="transparent" data-fill-palette-color="tertiary"></path></g></svg></g><defs></defs></svg><rect width="395.52" height="247.2" fill="none" stroke="none" visibility="hidden"></rect></g></svg></g></svg>